<!DOCTYPE svg PUBLIC "-//W3C//DTD SVG 1.1//EN" "http://www.w3.org/Graphics/SVG/1.1/DTD/svg11.dtd">
<!-- Uploaded to: SVG Repo, www.svgrepo.com, Transformed by: SVG Repo Mixer Tools -->
<svg fill="#0fff13" width="800px" height="800px" viewBox="0 0 96 96" data-name="Your Icons" id="Your_Icons" xmlns="http://www.w3.org/2000/svg" stroke="#0fff13">
<g id="SVGRepo_bgCarrier" stroke-width="0"/>
<g id="SVGRepo_tracerCarrier" stroke-linecap="round" stroke-linejoin="round"/>
<g id="SVGRepo_iconCarrier">
<title/>
<path d="M48,64.5a1,1,0,0,1-1-.88V15.88a1,1,0,0,1,2,0V63.62A1,1,0,0,1,48,64.5Z"/>
<path d="M47.15,51.51,45.79,51a52.46,52.46,0,0,1-6.17-2.67c-4.2-2.22-8.24-9.55-8.41-9.86l-1.09-2L32.31,36c.22-.06,5.52-1.33,12.07,2.87,6.09,3.9,4.59,9.58,3.5,11.43Zm-14-13.68c.79,1.38,4.19,7,7.43,8.75a52.63,52.63,0,0,0,5.69,2.48c.46-1,2.15-5.28-3-8.55S34.29,37.64,33.13,37.83Z"/>
<path d="M48.47,51.51l-.73-1.25c-1.1-1.84-2.62-7.51,3.5-11.43,6.44-4.13,11.51-3,12.07-2.87l2.19.55-1.09,2c-.17.31-4.21,7.64-8.41,9.86A53.4,53.4,0,0,1,49.84,51ZM61,37.72a16.08,16.08,0,0,0-8.65,2.79c-5.09,3.27-3.42,7.58-3,8.55a51.78,51.78,0,0,0,5.69-2.48c3.24-1.71,6.64-7.38,7.43-8.75A9.69,9.69,0,0,0,61,37.72Z"/>
<path d="M47.35,35.25l-1.25-.44a46,46,0,0,1-5.05-2.2c-3.4-1.79-6.58-7.46-6.93-8.1l-1-1.82,2-.51c.19-.05,4.57-1.11,10,2.36,5.09,3.26,3.83,8,2.92,9.56ZM36.15,24c1.21,2.1,3.66,5.67,5.84,6.81a38.71,38.71,0,0,0,4.46,2c.45-1,1.42-4.12-2.42-6.58A12.16,12.16,0,0,0,36.15,24Z"/>
<path d="M48.27,35.25l-.68-1.15c-.92-1.54-2.2-6.28,2.92-9.56,5.3-3.4,9.51-2.48,10-2.36l2,.51-1,1.82c-.35.64-3.53,6.31-6.93,8.1a45.71,45.71,0,0,1-5,2.2ZM58.53,24a12.91,12.91,0,0,0-6.94,2.24c-3.83,2.46-2.87,5.57-2.41,6.58a40.34,40.34,0,0,0,4.45-2c2.18-1.14,4.63-4.71,5.84-6.81A7.69,7.69,0,0,0,58.53,24Z"/>
<path d="M47.35,20.27l-1.25-.45a44.9,44.9,0,0,1-5.05-2.19c-3.4-1.79-6.58-7.46-6.93-8.1l-1-1.82,2-.51c.19,0,4.57-1.11,10,2.36,5.09,3.26,3.83,8,2.92,9.56ZM36.15,9.05c1.21,2.1,3.66,5.67,5.84,6.81a38.71,38.71,0,0,0,4.46,2c.45-1,1.42-4.12-2.42-6.58A12.1,12.1,0,0,0,36.15,9.05Z"/>
<path d="M48.27,20.27l-.68-1.15c-.92-1.54-2.2-6.28,2.92-9.56,5.3-3.4,9.51-2.48,10-2.36l2,.51-1,1.82c-.35.64-3.53,6.31-6.93,8.1a44.71,44.71,0,0,1-5,2.19ZM58.53,9a12.94,12.94,0,0,0-6.94,2.25c-3.83,2.46-2.87,5.57-2.41,6.58a42.39,42.39,0,0,0,4.45-2c2.18-1.14,4.63-4.71,5.84-6.81A7.39,7.39,0,0,0,58.53,9Z"/>
<path d="M69,92H52V87c0-.55-1.05-15.48,10.21-23.81a23.34,23.34,0,0,0,3.87-3.48l12.94-15a5,5,0,0,1,3-1.68V20a5,5,0,0,1,4.76-5,4.87,4.87,0,0,1,3.59,1.36A5.37,5.37,0,0,1,92,20.23v30a28.7,28.7,0,0,0,.33,4.3c.44,3,.6,8.78-3.37,13.2C83.46,73.88,78.8,78.61,73.87,83.61L71.7,85.79,69,87.54ZM54,90H67V86.46l3.48-2.28,1.94-2c4.91-5,9.55-9.7,15-15.83,3.43-3.81,3.27-8.88,2.88-11.57A31.15,31.15,0,0,1,90,50.22v-30a3.33,3.33,0,0,0-1-2.41A2.87,2.87,0,0,0,86.89,17,3,3,0,0,0,84,20V43.16a5,5,0,0,1,2,1.06h0l0,0a4.92,4.92,0,0,1,1.72,3.4c0,.13,0,.25,0,.38a5,5,0,0,1-1.22,3.27L73.28,66.7a1,1,0,0,1-1.51-1.31L85.1,50A2.93,2.93,0,0,0,85.83,48V47.8a3,3,0,0,0-1-2A2.88,2.88,0,0,0,83,45H82.8a3,3,0,0,0-2.24,1L67.62,61a25.54,25.54,0,0,1-4.19,3.78C53.07,72.46,54,86.78,54,86.92Z"/>
<path d="M44.54,92h-17V87.54l-2.83-1.89-2-2c-4.93-5-9.59-9.73-15.12-15.89-4-4.42-3.82-10.17-3.37-13.2a30.05,30.05,0,0,0,.32-4.3v-30A5.38,5.38,0,0,1,6.2,16.37,4.86,4.86,0,0,1,9.78,15a4.93,4.93,0,0,1,3.29,1.45A5,5,0,0,1,14.54,20V43.08a5,5,0,0,1,3,1.68l12.94,15a23.34,23.34,0,0,0,3.87,3.48c11.26,8.33,10.25,23.26,10.2,23.89Zm-15-2h13V87c0-.22,1-14.54-9.39-22.2A25.14,25.14,0,0,1,29,61L16,46.06a3,3,0,0,0-2.25-1h-.18a2.93,2.93,0,0,0-1.8.72,3,3,0,0,0-1,2c0,.08,0,.15,0,.23A2.94,2.94,0,0,0,11.48,50L24.81,65.39A1,1,0,0,1,23.3,66.7L10,51.3A5,5,0,0,1,8.74,48c0-.13,0-.25,0-.38a5,5,0,0,1,1.72-3.41,4.85,4.85,0,0,1,2.06-1.07V20a3,3,0,0,0-.88-2.13,3,3,0,0,0-2-.87,2.84,2.84,0,0,0-2.11.82,3.34,3.34,0,0,0-1,2.41v30a31.13,31.13,0,0,1-.34,4.59c-.4,2.69-.55,7.76,2.88,11.57,5.5,6.13,10.14,10.84,15.05,15.83l1.94,2,3.47,2.28Z"/>
</g>
</svg>