<?xml version="1.0" encoding="utf-8"?><!-- Uploaded to: SVG Repo, www.svgrepo.com, Generator: SVG Repo Mixer Tools -->
<svg fill="#000000" width="800px" height="800px" viewBox="0 0 24 24" id="mobile-payment" data-name="Flat Color" xmlns="http://www.w3.org/2000/svg" class="icon flat-color"><path id="secondary" d="M22,12v4a2,2,0,0,1-2,2H15a1,1,0,0,1-1-1V12Zm0-2V8a2,2,0,0,0-2-2H15a1,1,0,0,0-1,1v3Z" style="fill: rgb(44, 169, 188);"></path><rect id="primary" x="2" y="2" width="14" height="20" rx="2" style="fill: rgb(0, 0, 0);"></rect><path id="secondary-2" data-name="secondary" d="M6,2l.31,1.24a1,1,0,0,0,1,.76h3.44a1,1,0,0,0,1-.76L12,2" style="fill: rgb(44, 169, 188);"></path></svg>